<svg xmlns="http://www.w3.org/2000/svg" width="32.147" height="28.129" viewBox="0 0 32.147 28.129">
  <path id="Icon_awesome-th-list" data-name="Icon awesome-th-list" d="M9.376,13.8v5.023a1.507,1.507,0,0,1-1.507,1.507H1.507A1.507,1.507,0,0,1,0,18.826V13.8A1.507,1.507,0,0,1,1.507,12.3H7.869A1.507,1.507,0,0,1,9.376,13.8ZM0,23.849v5.023a1.507,1.507,0,0,0,1.507,1.507H7.869a1.507,1.507,0,0,0,1.507-1.507V23.849a1.507,1.507,0,0,0-1.507-1.507H1.507A1.507,1.507,0,0,0,0,23.849ZM7.869,2.25H1.507A1.507,1.507,0,0,0,0,3.757V8.78a1.507,1.507,0,0,0,1.507,1.507H7.869A1.507,1.507,0,0,0,9.376,8.78V3.757A1.507,1.507,0,0,0,7.869,2.25Zm5.023,28.129H30.64a1.507,1.507,0,0,0,1.507-1.507V23.849a1.507,1.507,0,0,0-1.507-1.507H12.892a1.507,1.507,0,0,0-1.507,1.507v5.023A1.507,1.507,0,0,0,12.892,30.379ZM11.385,3.757V8.78a1.507,1.507,0,0,0,1.507,1.507H30.64A1.507,1.507,0,0,0,32.147,8.78V3.757A1.507,1.507,0,0,0,30.64,2.25H12.892A1.507,1.507,0,0,0,11.385,3.757Zm1.507,16.576H30.64a1.507,1.507,0,0,0,1.507-1.507V13.8A1.507,1.507,0,0,0,30.64,12.3H12.892A1.507,1.507,0,0,0,11.385,13.8v5.023A1.507,1.507,0,0,0,12.892,20.333Z" transform="translate(0 -2.25)" fill="#102c31"/>
</svg>
