<svg xmlns="http://www.w3.org/2000/svg" width="30.975" height="30.975" viewBox="0 0 30.975 30.975">
  <path id="Icon_metro-calculator" data-name="Icon metro-calculator" d="M14.961,3.856H4.636A2.071,2.071,0,0,0,2.571,5.921V16.246a2.071,2.071,0,0,0,2.065,2.065H14.961a2.071,2.071,0,0,0,2.065-2.065V5.921a2.071,2.071,0,0,0-2.065-2.065Zm0,8.26H4.636V10.051H14.961Zm16.52-8.26H21.156a2.071,2.071,0,0,0-2.065,2.065V32.766a2.071,2.071,0,0,0,2.065,2.065H31.481a2.071,2.071,0,0,0,2.065-2.065V5.921A2.071,2.071,0,0,0,31.481,3.856Zm0,18.585H21.156V20.376H31.481Zm0-6.2H21.156V14.181H31.481Zm-16.52,4.13H4.636a2.071,2.071,0,0,0-2.065,2.065V32.766a2.071,2.071,0,0,0,2.065,2.065H14.961a2.071,2.071,0,0,0,2.065-2.065V22.441a2.071,2.071,0,0,0-2.065-2.065Zm0,8.26h-4.13v4.13H8.766v-4.13H4.636V26.571h4.13v-4.13h2.065v4.13h4.13v2.065Z" transform="translate(-2.571 -3.856)" fill="#102c31"/>
</svg>
