<svg xmlns="http://www.w3.org/2000/svg" width="68" height="82.988" viewBox="0 0 68 82.988">
  <g id="Group_1" data-name="Group 1" transform="translate(-29 -28.588)">
    <path id="Icon_ionic-md-fitness" data-name="Icon ionic-md-fitness" d="M51.1,36.425l3.669-3.669L51.1,29.073l-9.18,9.18L19.894,16.224l9.18-9.18L25.4,3.375,21.735,7.044,18.053,3.375l-5.5,5.5L8.873,5.2,5.2,8.873l3.669,3.669-5.5,5.51,3.669,3.669L3.375,25.4l3.669,3.669,9.18-9.18L38.253,41.923l-9.18,9.18,3.669,3.669L36.412,51.1l3.669,3.669,5.5-5.5,3.669,3.669,3.669-3.669L49.249,45.6l5.5-5.5Z" transform="translate(30.625 25.213)" fill="#102c31"/>
    <text id="FIT_LIFE" data-name="FIT LIFE" transform="translate(29 108.576)" fill="#102c31" font-size="16" font-family="Tahoma-Bold, Tahoma" font-weight="700"><tspan x="0" y="0">FIT LIFE</tspan></text>
  </g>
</svg>
